<svg width="272" height="99" viewBox="0 0 272 99" fill="none" xmlns="http://www.w3.org/2000/svg">
<path d="M67.5744 18.7935C70.8068 20.1369 73.2724 21.9719 74.9687 24.2959C76.665 26.6226 77.5131 29.2932 77.5131 32.305C77.5131 34.0084 77.2873 35.5801 76.8435 37.0229C74.9845 43.6402 69.6409 47.8315 60.8024 49.602C63.8772 50.5209 66.3114 52.0443 68.1022 54.1721C69.8956 56.3027 70.791 58.9384 70.791 62.0818C70.791 63.5246 70.5363 65.228 70.0243 67.192C68.6142 72.3021 65.781 76.085 61.5245 78.5406C57.2628 80.9963 51.2313 82.2268 43.4194 82.2268H3.46492C2.1205 82.2268 1.08067 81.9984 0.342816 81.5417C-0.392414 81.0823 0.198394 77.1167 0.776075 76.7244C1.35113 76.3321 1.70562 76.1065 1.83166 76.0393C2.8531 75.3864 3.68811 74.7121 4.32881 74.0243C4.96951 73.3365 5.51306 72.2054 5.96208 70.6336L17.6785 28.2803C17.9332 27.4286 18.0619 26.6092 18.0619 25.8246C18.0619 25.1046 17.949 24.4974 17.7258 24.0057C17.4999 23.5141 17.198 22.9418 16.8146 22.2862C16.2369 21.4345 16.9564 17.6839 17.8229 17.3239C18.6868 16.9638 20.0155 16.7838 21.8089 16.7838H56.1914C60.5451 16.7785 64.3394 17.4528 67.5744 18.7935ZM45.5332 59.3306C45.5332 55.7922 43.5481 54.0244 39.5779 54.0244H36.5818C35.5131 54.0244 34.573 54.7471 34.2763 55.7976L30.1932 70.2441C29.7494 71.8158 30.9021 73.3821 32.4986 73.3821H34.2002C36.952 73.3821 39.163 72.6782 40.8278 71.2704C42.4899 69.8625 43.837 67.3236 44.861 63.6535C45.3074 62.0818 45.5332 60.6417 45.5332 59.3306ZM52.5442 30.7333C52.5442 27.3265 50.6536 25.6231 46.8777 25.6231H44.37C43.296 25.6231 42.3534 26.3539 42.0593 27.4098L38.3306 40.8729C37.8973 42.4419 39.0474 44.0002 40.6413 44.0002H41.6917C44.3805 44.0002 46.51 43.3286 48.0777 41.9852C49.6453 40.6419 50.9135 38.2346 51.872 34.7633C52.3184 33.3232 52.5442 31.9799 52.5442 30.7333Z" fill="white"/>
<path d="M262.061 18.7935C265.294 20.1369 267.759 21.9719 269.456 24.2959C271.152 26.6226 272 29.2932 272 32.305C272 34.0084 271.774 35.5801 271.33 37.0229C269.471 43.6402 264.128 47.8315 255.289 49.602C258.364 50.5209 260.798 52.0443 262.589 54.1721C264.382 56.3027 265.278 58.9384 265.278 62.0818C265.278 63.5246 265.023 65.228 264.511 67.192C263.101 72.3021 260.268 76.085 256.011 78.5406C251.75 80.9963 245.718 82.2268 237.906 82.2268H197.952C196.607 82.2268 195.568 81.9984 194.83 81.5417C194.094 81.0823 194.685 77.1167 195.263 76.7244C195.838 76.3321 196.193 76.1065 196.319 76.0393C197.34 75.3864 198.175 74.7121 198.816 74.0243C199.456 73.3365 200 72.2054 200.449 70.6336L212.165 28.2803C212.42 27.4286 212.549 26.6092 212.549 25.8246C212.549 25.1046 212.436 24.4974 212.213 24.0057C211.987 23.5141 211.685 22.9418 211.301 22.2862C210.724 21.4345 211.443 17.6839 212.31 17.3239C213.174 16.9638 214.502 16.7838 216.296 16.7838H250.678C255.032 16.7785 258.826 17.4528 262.061 18.7935ZM240.02 59.3306C240.02 55.7922 238.035 54.0244 234.065 54.0244H231.069C230 54.0244 229.06 54.7471 228.763 55.7976L224.68 70.2441C224.236 71.8158 225.389 73.3821 226.986 73.3821H228.687C231.439 73.3821 233.65 72.6782 235.315 71.2704C236.977 69.8625 238.324 67.3236 239.348 63.6535C239.794 62.0818 240.02 60.6417 240.02 59.3306ZM247.031 30.7333C247.031 27.3265 245.14 25.6231 241.365 25.6231H238.857C237.783 25.6231 236.84 26.3539 236.546 27.4098L232.817 40.8729C232.384 42.4419 233.534 44.0002 235.128 44.0002H236.179C238.867 44.0002 240.997 43.3286 242.565 41.9852C244.132 40.6419 245.4 38.2346 246.359 34.7633C246.805 33.3232 247.031 31.9799 247.031 30.7333Z" fill="white"/>
<path d="M142.857 65.3462C142.857 60.3919 140.076 57.9174 134.52 57.9174H129.602C128.533 57.9174 127.593 58.6402 127.296 59.6907L121.02 81.8802C120.577 83.452 121.729 85.021 123.326 85.021H126.989C130.841 85.021 133.934 84.035 136.266 82.0602C138.595 80.0909 140.478 76.5364 141.914 71.3994C142.542 69.1963 142.857 67.1812 142.857 65.3462ZM152.672 25.3088C152.672 20.5426 150.028 18.1568 144.739 18.1568H140.504C139.43 18.1568 138.487 18.8876 138.193 19.9434L132.43 40.7574C131.996 42.3264 133.146 43.8847 134.74 43.8847H137.479C141.244 43.8847 144.225 42.9444 146.42 41.0637C148.615 39.1857 150.385 35.8139 151.732 30.9536C152.357 28.9332 152.672 27.0525 152.672 25.3088Z" fill="white"/>
<path d="M139.897 99L82.9222 98.9221L93.7826 92.2537C94.5309 91.7942 95.387 91.5524 96.2614 91.5524L139.897 91.6277C150.156 91.6277 158.089 90.0506 163.472 86.9447C168.619 83.9732 171.956 79.4998 173.673 73.264C174.293 70.8809 174.616 68.7933 174.616 67.1114C174.616 63.5918 173.671 60.7546 171.722 58.4414C169.798 56.1577 167.258 54.5107 163.96 53.4092C162.311 52.8557 160.161 52.4446 161.316 49.4812C162.154 47.3291 162.653 46.2276 164.344 45.8541C174.894 43.5624 181.065 38.7075 183.226 31.0127C183.767 29.2637 184.027 27.4152 184.027 25.4244C184.027 21.9907 183.095 19.0434 181.178 16.4158C179.211 13.7237 176.244 11.5394 172.355 9.92203C168.28 8.2294 163.372 7.37234 157.777 7.37234L115.769 7.99835C114.708 8.01447 113.671 7.66788 112.822 7.01501L104.527 0.650184L157.777 0C164.304 0 170.123 1.03976 175.062 3.08972C180.185 5.22028 184.184 8.21865 186.949 12.0015C189.788 15.8973 191.23 20.411 191.23 25.419C191.23 28.1675 190.857 30.7655 190.119 33.1406C187.876 41.1336 182.462 46.9799 173.994 50.5371C175.162 51.464 176.226 52.493 177.179 53.6241C180.256 57.2834 181.819 61.8186 181.819 67.106C181.819 69.4623 181.427 72.1141 180.621 75.2092C178.376 83.3499 173.802 89.4407 167.009 93.3606C160.444 97.1596 151.574 99 139.897 99Z" fill="white"/>
<path d="M88.8776 83.89L80.7691 88.4547L98.7901 10.5508L104.315 14.7904C105.861 15.9753 106.56 17.9957 106.093 19.914L91.2225 80.7761C90.8969 82.1033 90.0461 83.2317 88.8776 83.89Z" fill="white"/>
</svg>
