<svg width="453" height="161" viewBox="0 0 453 161" fill="none" xmlns="http://www.w3.org/2000/svg">
<path d="M112.442 30.5632C117.821 32.7479 121.923 35.7321 124.746 39.5115C127.569 43.2954 128.98 47.6384 128.98 52.5364C128.98 55.3066 128.604 57.8626 127.866 60.2089C124.772 70.9705 115.881 77.7866 101.174 80.666C106.29 82.1603 110.34 84.6377 113.32 88.0982C116.304 91.563 117.794 95.8493 117.794 100.961C117.794 103.308 117.371 106.078 116.519 109.272C114.172 117.582 109.458 123.734 102.375 127.728C95.2838 131.721 85.2475 133.722 72.2488 133.722H5.76554C3.52845 133.722 1.79821 133.351 0.570437 132.608C-0.652967 131.861 0.330123 125.412 1.29137 124.774C2.24825 124.136 2.8381 123.769 3.04783 123.66C4.74749 122.598 6.13692 121.501 7.20303 120.383C8.26914 119.264 9.17359 117.425 9.92074 114.869L29.4166 45.9912C29.8404 44.6061 30.0545 43.2735 30.0545 41.9977C30.0545 40.8267 29.8666 39.8392 29.4952 39.0396C29.1195 38.2401 28.617 37.3094 27.9791 36.2433C27.0178 34.8582 28.215 28.7587 29.6569 28.1732C31.0944 27.5877 33.3052 27.295 36.2895 27.295H93.5011C100.745 27.2862 107.059 28.3829 112.442 30.5632ZM75.7661 96.4872C75.7661 90.7329 72.4629 87.8579 65.8565 87.8579H60.8712C59.0929 87.8579 57.5287 89.0332 57.0349 90.7416L50.2407 114.235C49.5022 116.791 51.4204 119.339 54.0769 119.339H56.9082C61.4872 119.339 65.1662 118.194 67.9363 115.904C70.7021 113.615 72.9436 109.486 74.6476 103.517C75.3904 100.961 75.7661 98.6194 75.7661 96.4872ZM87.4321 49.9804C87.4321 44.4401 84.2863 41.67 78.0032 41.67H73.8305C72.0435 41.67 70.4749 42.8584 69.9855 44.5756L63.7811 66.4701C63.0602 69.0218 64.9739 71.556 67.6261 71.556H69.3738C73.848 71.556 77.3915 70.4637 80 68.279C82.6084 66.0944 84.7188 62.1795 86.3136 56.5343C87.0564 54.1924 87.4321 52.0077 87.4321 49.9804Z" fill="#131212"/>
<path d="M436.063 30.5632C441.442 32.7479 445.544 35.7321 448.367 39.5115C451.19 43.2954 452.601 47.6384 452.601 52.5364C452.601 55.3066 452.225 57.8626 451.487 60.2089C448.393 70.9705 439.502 77.7866 424.795 80.666C429.911 82.1603 433.961 84.6377 436.941 88.0982C439.926 91.563 441.415 95.8493 441.415 100.961C441.415 103.308 440.992 106.078 440.14 109.272C437.793 117.582 433.079 123.734 425.996 127.728C418.905 131.721 408.869 133.722 395.87 133.722H329.387C327.15 133.722 325.419 133.351 324.191 132.608C322.968 131.861 323.951 125.412 324.912 124.774C325.869 124.136 326.459 123.769 326.669 123.66C328.369 122.598 329.758 121.501 330.824 120.383C331.89 119.264 332.795 117.425 333.542 114.869L353.038 45.9912C353.461 44.6061 353.676 43.2735 353.676 41.9977C353.676 40.8267 353.488 39.8392 353.116 39.0396C352.741 38.2401 352.238 37.3094 351.6 36.2433C350.639 34.8582 351.836 28.7587 353.278 28.1732C354.715 27.5877 356.926 27.295 359.911 27.295H417.122C424.366 27.2862 430.68 28.3829 436.063 30.5632ZM399.387 96.4872C399.387 90.7329 396.084 87.8579 389.478 87.8579H384.492C382.714 87.8579 381.15 89.0332 380.656 90.7416L373.862 114.235C373.123 116.791 375.041 119.339 377.698 119.339H380.529C385.108 119.339 388.787 118.194 391.557 115.904C394.323 113.615 396.565 109.486 398.269 103.517C399.011 100.961 399.387 98.6194 399.387 96.4872ZM411.053 49.9804C411.053 44.4401 407.907 41.67 401.624 41.67H397.452C395.665 41.67 394.096 42.8584 393.607 44.5756L387.402 66.4701C386.681 69.0218 388.595 71.556 391.247 71.556H392.995C397.469 71.556 401.013 70.4637 403.621 68.279C406.23 66.0944 408.34 62.1795 409.935 56.5343C410.677 54.1924 411.053 52.0077 411.053 49.9804Z" fill="#131212"/>
<path d="M237.71 106.27C237.71 98.2131 233.083 94.189 223.837 94.189H215.654C213.875 94.189 212.311 95.3643 211.817 97.0727L201.375 133.159C200.636 135.715 202.554 138.267 205.211 138.267H211.306C217.716 138.267 222.863 136.663 226.743 133.452C230.619 130.249 233.751 124.468 236.141 116.114C237.186 112.531 237.71 109.254 237.71 106.27ZM254.042 41.1588C254.042 33.4076 249.642 29.5277 240.843 29.5277H233.795C232.008 29.5277 230.439 30.7162 229.95 32.4333L220.359 66.2823C219.638 68.8339 221.552 71.3681 224.204 71.3681H228.762C235.027 71.3681 239.986 69.8389 243.639 66.7804C247.292 63.7262 250.237 58.2428 252.478 50.3387C253.518 47.053 254.042 43.9945 254.042 41.1588Z" fill="#131212"/>
<path d="M232.786 161L137.981 160.873L156.052 150.029C157.297 149.282 158.722 148.888 160.177 148.888L232.786 149.011C249.857 149.011 263.056 146.446 272.013 141.395C280.577 136.562 286.13 129.288 288.988 119.146C290.019 115.271 290.557 111.876 290.557 109.141C290.557 103.417 288.984 98.803 285.742 95.041C282.539 91.3271 278.314 88.6488 272.826 86.8573C270.082 85.9573 266.504 85.2888 268.426 80.4694C269.82 76.9696 270.65 75.1782 273.464 74.5709C291.02 70.8438 301.288 62.9485 304.884 50.4348C305.784 47.5904 306.216 44.5843 306.216 41.3467C306.216 35.7627 304.665 30.9696 301.475 26.6964C298.203 22.3184 293.266 18.7662 286.795 16.1358C280.013 13.3832 271.847 11.9894 262.536 11.9894L192.636 13.0074C190.871 13.0336 189.145 12.47 187.734 11.4082L173.931 1.05737L262.536 0C273.398 0 283.081 1.69092 291.299 5.0247C299.824 8.48955 306.478 13.3657 311.079 19.5177C315.802 25.8532 318.201 33.1936 318.201 41.338C318.201 45.8078 317.581 50.0329 316.353 53.8953C312.622 66.894 303.612 76.4016 289.521 82.1866C291.465 83.694 293.235 85.3674 294.821 87.2069C299.942 93.1579 302.542 100.533 302.542 109.132C302.542 112.964 301.891 117.276 300.549 122.31C296.813 135.549 289.202 145.454 277.899 151.829C266.975 158.007 252.216 161 232.786 161Z" fill="#131212"/>
<path d="M147.89 136.427L134.398 143.851L164.384 17.1583L173.577 24.0531C176.151 25.9799 177.313 29.2657 176.535 32.3853L151.792 131.363C151.25 133.522 149.834 135.357 147.89 136.427Z" fill="#131212"/>
</svg>
